<svg width="32" height="32" viewBox="0 0 32 32" fill="none" xmlns="http://www.w3.org/2000/svg">
<circle cx="16" cy="16" r="16" fill="#181818"/>
<path d="M25.2301 12.92H21.1301M10.8701 12.92H6.77012M6.62012 19.75V12.25C6.62012 11.48 6.65012 10.79 6.73012 10.18C7.10012 6.89 8.65012 6 12.8801 6H19.1301C23.3501 6 24.9101 6.89 25.2701 10.18C25.3601 10.79 25.3801 11.48 25.3801 12.25V19.75C25.3801 20.52 25.3501 21.21 25.2701 21.83C24.9001 25.11 23.3501 26 19.1201 26H12.8801C8.66012 26 7.10012 25.11 6.74012 21.83C6.65012 21.21 6.62012 20.52 6.62012 19.75V19.75Z" stroke="white" stroke-width="1.5" stroke-linecap="round" stroke-linejoin="round"/>
<path d="M21.1301 12.92C21.1301 14.05 20.2101 14.97 19.0801 14.97H12.9201C12.3601 14.97 11.8401 14.74 11.4701 14.36C11.1001 14 10.8701 13.49 10.8701 12.92C10.8701 11.79 11.7901 10.87 12.9201 10.87H19.0701C19.6301 10.87 20.1501 11.1 20.5201 11.48C20.9001 11.85 21.1301 12.36 21.1301 12.92Z" stroke="white" stroke-width="1.5" stroke-linecap="round" stroke-linejoin="round"/>
</svg>
